<svg width="24" height="24" viewBox="0 0 24 24" fill="none" xmlns="http://www.w3.org/2000/svg">
<path d="M12.0082 6.60928C9.02695 6.60928 6.62227 9.01397 6.62227 11.9952C6.62227 14.9765 9.02695 17.3812 12.0082 17.3812C14.9895 17.3812 17.3941 14.9765 17.3941 11.9952C17.3941 9.01397 14.9895 6.60928 12.0082 6.60928ZM12.0082 15.4968C10.0816 15.4968 8.50664 13.9265 8.50664 11.9952C8.50664 10.064 10.077 8.49365 12.0082 8.49365C13.9395 8.49365 15.5098 10.064 15.5098 11.9952C15.5098 13.9265 13.9348 15.4968 12.0082 15.4968ZM18.8707 6.38897C18.8707 7.0874 18.3082 7.64522 17.6145 7.64522C16.916 7.64522 16.3582 7.08272 16.3582 6.38897C16.3582 5.69522 16.9207 5.13271 17.6145 5.13271C18.3082 5.13271 18.8707 5.69522 18.8707 6.38897ZM22.4379 7.66397C22.3582 5.98115 21.9738 4.49053 20.741 3.2624C19.5129 2.03428 18.0223 1.6499 16.3395 1.56553C14.6051 1.46709 9.40664 1.46709 7.67227 1.56553C5.99414 1.64521 4.50352 2.02959 3.2707 3.25771C2.03789 4.48584 1.6582 5.97646 1.57383 7.65928C1.47539 9.39365 1.47539 14.5921 1.57383 16.3265C1.65352 18.0093 2.03789 19.4999 3.2707 20.728C4.50352 21.9562 5.98945 22.3405 7.67227 22.4249C9.40664 22.5233 14.6051 22.5233 16.3395 22.4249C18.0223 22.3452 19.5129 21.9608 20.741 20.728C21.9691 19.4999 22.3535 18.0093 22.4379 16.3265C22.5363 14.5921 22.5363 9.39834 22.4379 7.66397ZM20.1973 18.1874C19.8316 19.1062 19.1238 19.814 18.2004 20.1843C16.8176 20.7327 13.5363 20.6062 12.0082 20.6062C10.4801 20.6062 7.19414 20.728 5.81602 20.1843C4.89727 19.8187 4.18945 19.1108 3.81914 18.1874C3.2707 16.8046 3.39727 13.5233 3.39727 11.9952C3.39727 10.4671 3.27539 7.18115 3.81914 5.80303C4.18477 4.88428 4.89258 4.17646 5.81602 3.80615C7.19883 3.25771 10.4801 3.38428 12.0082 3.38428C13.5363 3.38428 16.8223 3.2624 18.2004 3.80615C19.1191 4.17178 19.827 4.87959 20.1973 5.80303C20.7457 7.18584 20.6191 10.4671 20.6191 11.9952C20.6191 13.5233 20.7457 16.8093 20.1973 18.1874Z" fill="#454545"/>
</svg>
