<svg width="48" height="48" viewBox="0 0 48 48" fill="none" xmlns="http://www.w3.org/2000/svg">
<path d="M20.0906 22.35C20.4188 21.1781 20.7375 19.2 21.3281 19.2C22.1063 19.3688 22.2281 21.3937 23.0719 22.6312C23.5031 20.4281 23.5687 14.6531 24.3937 14.5031C25.2375 14.4375 26.2406 20.7375 26.4562 21.7687C27.3844 22.1531 31.0406 22.3875 31.0406 22.3875C31.2188 23.0719 28.7906 23.1 27.2906 23.1188C26.8594 24.5063 26.7844 25.7156 26.2219 25.7438C25.7812 25.7625 25.4531 23.0437 24.5812 21.0938L23.7 27.2344C23.2875 28.4531 22.2469 25.125 21.6469 23.55C21.3375 23.5406 15.7969 23.4 17.1844 22.8187L20.0906 22.35V22.35ZM30.375 42C32.3625 42 32.3625 39 30.375 39H17.625C15.6375 39 15.6375 42 17.625 42H30.375ZM28.125 48C30.1125 48 30.1125 45 28.125 45H19.875C17.8875 45 17.8875 48 19.875 48H28.125ZM31.3312 34.7344C31.6312 32.9625 31.8188 31.3219 32.4469 30.1594C33.1875 28.7813 33.9563 27.525 34.6969 26.3156C37.0031 22.5281 39 19.2656 39 14.55C39 6.525 32.2687 0 24 0C15.7313 0 9 6.525 9 14.55C9 19.2562 10.9969 22.5281 13.3031 26.3156C14.0438 27.525 14.8031 28.7813 15.5531 30.1594C16.1813 31.3313 16.3688 32.9531 16.6688 34.7438C16.9969 36.7125 20.0531 36.2156 19.725 34.2656C19.3875 32.2312 19.2 30.45 18.2906 28.7719C15.2344 23.1094 12.0938 19.8094 12.0938 14.55C12.0938 8.18437 17.4375 3 24 3C30.5625 3 35.9062 8.18437 35.9062 14.55C35.9062 19.8094 32.7656 23.1094 29.7094 28.7625C28.8 30.45 28.6125 32.2687 28.275 34.2562C27.9563 36.1875 30.9937 36.7312 31.3312 34.7344Z" fill="#E3AD00"/>
</svg>
