<svg width="49" height="48" viewBox="0 0 49 48" fill="none" xmlns="http://www.w3.org/2000/svg">
<g clip-path="url(#clip0_125_98)">
<path d="M26.7428 22.5225H21.7853V18.0675H26.7428V22.5225ZM26.7428 7.19995H21.7853V11.7525H26.7428V7.19995ZM32.6078 18.06H27.6503V22.515H32.6078V18.06V18.06ZM20.8853 12.6525H15.9278V17.16H20.8853V12.6525ZM26.7428 12.6525H21.7853V17.16H26.7428V12.6525ZM47.5028 20.1525C46.4228 19.425 43.9328 19.1625 42.0203 19.5225C41.7728 17.7225 40.7678 16.155 38.9378 14.745L37.8878 14.0475L37.1903 15.0975C35.8103 17.1825 35.4353 20.6175 36.9128 22.8825C36.2603 23.235 34.9778 23.715 33.2828 23.685H0.680339C0.0278395 27.495 1.11534 32.4449 3.98034 35.8424C6.76284 39.1349 10.9328 40.8074 16.3853 40.8074C28.1903 40.8074 36.9278 35.3699 41.0153 25.4924C42.6203 25.5224 46.0853 25.4999 47.8628 22.1025C47.9753 21.915 48.3578 21.1125 48.5003 20.82L47.5028 20.1525V20.1525ZM9.17034 18.06H4.22034V22.515H9.17784V18.06H9.17034ZM15.0278 18.06H10.0703V22.515H15.0278V18.06ZM20.8853 18.06H15.9278V22.515H20.8853V18.06ZM15.0278 12.6525H10.0703V17.16H15.0278V12.6525Z" fill="#E3AD00"/>
</g>
<defs>
<clipPath id="clip0_125_98">
<rect width="48" height="48" fill="white" transform="translate(0.5)"/>
</clipPath>
</defs>
</svg>
