<svg width="84" height="186" viewBox="0 0 84 186" fill="none" xmlns="http://www.w3.org/2000/svg">
<circle cx="3" cy="3" r="3" fill="#575757" fill-opacity="0.25"/>
<circle cx="29" cy="3" r="3" fill="#575757" fill-opacity="0.25"/>
<circle cx="55" cy="3" r="3" fill="#575757" fill-opacity="0.25"/>
<circle cx="81" cy="3" r="3" fill="#575757" fill-opacity="0.25"/>
<circle cx="3" cy="63" r="3" fill="#575757" fill-opacity="0.25"/>
<circle cx="29" cy="63" r="3" fill="#575757" fill-opacity="0.25"/>
<circle cx="55" cy="63" r="3" fill="#575757" fill-opacity="0.25"/>
<circle cx="81" cy="63" r="3" fill="#575757" fill-opacity="0.25"/>
<circle cx="3" cy="123" r="3" fill="#575757" fill-opacity="0.25"/>
<circle cx="29" cy="123" r="3" fill="#575757" fill-opacity="0.25"/>
<circle cx="55" cy="123" r="3" fill="#575757" fill-opacity="0.25"/>
<circle cx="81" cy="123" r="3" fill="#575757" fill-opacity="0.25"/>
<circle cx="3" cy="33" r="3" fill="#575757" fill-opacity="0.25"/>
<circle cx="29" cy="33" r="3" fill="#575757" fill-opacity="0.25"/>
<circle cx="55" cy="33" r="3" fill="#575757" fill-opacity="0.25"/>
<circle cx="81" cy="33" r="3" fill="#575757" fill-opacity="0.25"/>
<circle cx="3" cy="93" r="3" fill="#575757" fill-opacity="0.25"/>
<circle cx="29" cy="93" r="3" fill="#575757" fill-opacity="0.25"/>
<circle cx="55" cy="93" r="3" fill="#575757" fill-opacity="0.25"/>
<circle cx="81" cy="93" r="3" fill="#575757" fill-opacity="0.25"/>
<circle cx="3" cy="153" r="3" fill="#575757" fill-opacity="0.25"/>
<circle cx="29" cy="153" r="3" fill="#575757" fill-opacity="0.25"/>
<circle cx="55" cy="153" r="3" fill="#575757" fill-opacity="0.25"/>
<circle cx="81" cy="153" r="3" fill="#575757" fill-opacity="0.25"/>
<circle cx="3" cy="183" r="3" fill="#575757" fill-opacity="0.25"/>
<circle cx="29" cy="183" r="3" fill="#575757" fill-opacity="0.25"/>
<circle cx="55" cy="183" r="3" fill="#575757" fill-opacity="0.25"/>
<circle cx="81" cy="183" r="3" fill="#575757" fill-opacity="0.25"/>
</svg>
