<svg width="48" height="48" viewBox="0 0 48 48" fill="none" xmlns="http://www.w3.org/2000/svg">
<path d="M30.375 30.375C33.8958 30.375 36.75 27.5208 36.75 24C36.75 20.4792 33.8958 17.625 30.375 17.625C26.8542 17.625 24 20.4792 24 24C24 27.5208 26.8542 30.375 30.375 30.375Z" stroke="#E3AD00" stroke-width="2.9375" stroke-linecap="round" stroke-linejoin="round"/>
<path d="M24 17.625V4.875H17.625C15.9342 4.875 14.3127 5.54665 13.1172 6.74219C11.9216 7.93774 11.25 9.55924 11.25 11.25C11.25 12.9408 11.9216 14.5623 13.1172 15.7578C14.3127 16.9534 15.9342 17.625 17.625 17.625H24Z" stroke="#E3AD00" stroke-width="2.9375" stroke-linecap="round" stroke-linejoin="round"/>
<path d="M24 30.375V17.625H17.625C15.9342 17.625 14.3127 18.2966 13.1172 19.4922C11.9216 20.6877 11.25 22.3092 11.25 24C11.25 25.6908 11.9216 27.3123 13.1172 28.5078C14.3127 29.7033 15.9342 30.375 17.625 30.375H24Z" stroke="#E3AD00" stroke-width="2.9375" stroke-linecap="round" stroke-linejoin="round"/>
<path d="M24 17.625V4.875H30.375C32.0658 4.875 33.6873 5.54665 34.8828 6.74219C36.0783 7.93774 36.75 9.55924 36.75 11.25C36.75 12.9408 36.0783 14.5623 34.8828 15.7578C33.6873 16.9534 32.0658 17.625 30.375 17.625H24Z" stroke="#E3AD00" stroke-width="2.9375" stroke-linecap="round" stroke-linejoin="round"/>
<path d="M24 30.375V36.75C24 38.0109 23.6261 39.2434 22.9256 40.2918C22.2251 41.3401 21.2295 42.1572 20.0646 42.6397C18.8997 43.1222 17.6179 43.2485 16.3813 43.0025C15.1447 42.7565 14.0088 42.1494 13.1172 41.2578C12.2256 40.3662 11.6185 39.2303 11.3725 37.9937C11.1265 36.7571 11.2528 35.4753 11.7353 34.3104C12.2178 33.1455 13.0349 32.1499 14.0832 31.4494C15.1316 30.7489 16.3641 30.375 17.625 30.375H24Z" stroke="#E3AD00" stroke-width="2.9375" stroke-linecap="round" stroke-linejoin="round"/>
</svg>
