<svg width="48" height="53" viewBox="0 0 48 53" fill="none" xmlns="http://www.w3.org/2000/svg">
<g clip-path="url(#clip0_18_144)">
<path d="M44.995 26.0698C44.995 23.3479 42.7859 21.1414 40.0608 21.1414C39.8855 21.1414 39.7126 21.1507 39.5422 21.1685L46.3193 1.20361H17.5186L24.2862 21.1513C24.187 21.1453 24.0873 21.1414 23.9864 21.1414C21.2613 21.1414 19.0522 23.3479 19.0522 26.0698C19.0522 28.2699 20.4957 30.1326 22.4883 30.7664C21.4358 32.5871 20.1117 34.2269 18.6083 35.6435C16.564 37.5699 14.2244 39.0304 11.6941 39.9305C8.68134 38.3847 7.25859 34.9466 8.54241 31.9324C8.68734 31.5921 8.83528 31.2469 8.97684 30.9035C11.1593 30.3946 12.7857 28.4402 12.7857 26.1052C12.7857 23.3833 10.5766 21.1767 7.85147 21.1767C5.12616 21.1767 2.91703 23.3833 2.91703 26.1052C2.91703 27.7744 3.74859 29.2485 5.01947 30.1401C3.79809 32.9177 2.00297 35.8242 1.44366 39.193C0.773343 43.2306 1.44159 47.5162 4.93753 49.9365C13.0795 55.5728 21.9175 46.4424 31.2361 44.1471C34.6132 43.3152 38.3202 43.4493 41.2957 41.728C43.5301 40.4354 45.0031 38.2933 45.4212 35.8883C45.8341 33.5125 45.232 31.1469 43.8475 29.2288C44.5636 28.3733 44.995 27.2721 44.995 26.0698ZM28.9203 26.0872C28.9203 26.0814 28.9208 26.0756 28.9208 26.0698C28.9208 24.2824 27.968 22.7171 26.5422 21.8532L31.9287 10.974L37.3246 21.9686C35.9995 22.8521 35.1263 24.359 35.1263 26.0698C35.1263 26.1057 35.1284 26.1411 35.1292 26.1769L28.9203 26.0872Z" fill="#242424"/>
<path d="M46.1998 26.0698C46.1998 23.0762 44.0404 20.5782 41.1958 20.0447L48 0H15.8374L22.6519 20.0853C19.9063 20.6957 17.8468 23.1464 17.8468 26.0698C17.8468 28.2653 19.0084 30.1937 20.7493 31.2773C19.9119 32.5233 18.9189 33.6958 17.781 34.768C15.9765 36.4685 13.9659 37.7581 11.7984 38.6065C9.61538 37.2367 8.69251 34.6538 9.65101 32.4034L9.72601 32.2274C9.77288 32.1173 9.81994 32.0068 9.86682 31.8963C12.2646 31.0612 13.9905 28.7814 13.9905 26.1052C13.9905 22.7239 11.2363 19.9731 7.85101 19.9731C4.46569 19.9731 1.71169 22.7239 1.71169 26.1052C1.71169 27.8119 2.41388 29.3573 3.54413 30.4701C3.33919 30.9065 3.12376 31.35 2.90232 31.8043C1.86882 33.9245 0.697507 36.3277 0.254444 38.9962C-0.625493 44.296 0.793694 48.5326 4.25063 50.9257C6.34838 52.3779 8.47857 52.9491 10.6223 52.9489C14.6589 52.9487 18.7421 50.9233 22.7359 48.9418C25.6123 47.515 28.5864 46.0394 31.5244 45.3157C32.6175 45.0464 33.7423 44.8844 34.9331 44.7129C37.2945 44.3726 39.7365 44.0209 41.8995 42.7697C44.4066 41.3192 46.1229 38.8861 46.6082 36.0943C47.0248 33.6977 46.5233 31.2975 45.3004 29.2618C45.8706 28.3314 46.1998 27.2384 46.1998 26.0698ZM43.7897 26.0698C43.7897 28.1237 42.1168 29.7948 40.0603 29.7948C38.0042 29.7948 36.3311 28.1237 36.3311 26.0698C36.3311 24.0159 38.0042 22.345 40.0603 22.345C42.1168 22.345 43.7897 24.0159 43.7897 26.0698ZM44.6379 2.40729L38.6295 20.1076C38.3691 20.17 38.1152 20.2486 37.8686 20.3432L31.9331 8.24908L25.9804 20.2717C25.7231 20.1831 25.4584 20.1102 25.1869 20.0563L19.1991 2.40729H44.6379ZM23.9861 22.345C26.0424 22.345 27.7153 24.0159 27.7153 26.0698C27.7153 28.1237 26.0424 29.7948 23.9861 29.7948C21.93 29.7948 20.2569 28.1237 20.2569 26.0698C20.2569 24.0159 21.93 22.345 23.9861 22.345ZM7.85101 22.3804C9.90751 22.3804 11.5804 24.0513 11.5804 26.1052C11.5804 28.1591 9.90751 29.8302 7.85101 29.8302C5.79488 29.8302 4.12182 28.1591 4.12182 26.1052C4.12182 24.0513 5.79488 22.3804 7.85101 22.3804ZM44.2335 35.6825C43.8707 37.7703 42.5796 39.5942 40.6914 40.6864C38.9314 41.7046 36.8222 42.0086 34.5891 42.3301C33.3928 42.5024 32.1557 42.6807 30.9473 42.9785C27.7519 43.7655 24.6568 45.301 21.6638 46.7859C15.6741 49.7574 10.5011 52.3235 5.62369 48.9471C2.05088 46.4739 2.21588 41.8977 2.63213 39.39C3.01782 37.0669 4.06069 34.9272 5.06926 32.8579C5.24382 32.4999 5.41332 32.1491 5.57963 31.8006C6.07988 32.0004 6.61182 32.1365 7.16626 32.1983C6.13969 35.5827 7.75426 39.2623 11.1429 41.0012L11.6066 41.2392L12.0979 41.0645C14.7769 40.1116 17.2453 38.5823 19.4349 36.5191C20.8504 35.1854 22.0667 33.7099 23.0668 32.1332C23.3668 32.1783 23.6738 32.2021 23.9861 32.2021C27.3714 32.2021 30.1256 29.4513 30.1256 26.0698C30.1256 24.2513 29.3282 22.616 28.0652 21.492L31.9236 13.6989L35.8211 21.6405C34.6517 22.7578 33.921 24.3296 33.921 26.0698C33.921 29.4513 36.675 32.2021 40.0603 32.2021C41.361 32.2021 42.5676 31.7949 43.5613 31.1031C44.2513 32.5139 44.5084 34.1013 44.2335 35.6825Z" fill="#E3AD00"/>
</g>
<defs>
<clipPath id="clip0_18_144">
<rect width="48" height="53" fill="white"/>
</clipPath>
</defs>
</svg>
