<svg width="48" height="48" viewBox="0 0 48 48" fill="none" xmlns="http://www.w3.org/2000/svg">
<g clip-path="url(#clip0_126_100)">
<path d="M24 7.14893C14.7083 7.14893 7.14893 14.7083 7.14893 24C7.14893 33.2917 14.7083 40.851 24 40.851C33.2917 40.851 40.851 33.2916 40.851 24C40.851 14.7083 33.2917 7.14893 24 7.14893ZM39.2454 22.4993C39.2289 22.9071 38.8929 23.2341 38.4811 23.2341H34.9786V21.4468C34.9786 21.0238 34.6357 20.6809 34.2126 20.6809H24.7659V19.149H27.0638C27.4869 19.149 27.8298 18.8061 27.8298 18.3831C27.8298 17.9606 28.1734 17.6171 28.5957 17.6171H29.617C30.0401 17.6171 30.3829 17.2742 30.3829 16.8512V14.0427H35.6316C37.6228 16.3652 38.9318 19.2883 39.2454 22.4993ZM24 8.68089C24.7158 8.68089 25.4199 8.73142 26.1099 8.82695C25.7576 9.65017 24.9455 10.2129 24 10.2129C23.0545 10.2129 22.2425 9.65017 21.8901 8.82686C22.58 8.73142 23.2841 8.68089 24 8.68089ZM14.0425 12.3684V20.6808H9.04408C9.7743 17.3883 11.5667 14.4909 14.0425 12.3684ZM8.89989 26.5835C9.12489 26.3997 9.4053 26.2979 9.7022 26.2979H15.0638V28.5958C15.0638 29.5375 14.5387 31.0013 13.9403 31.7283L12.2349 33.7997C10.5415 31.7701 9.36273 29.2974 8.89989 26.5835ZM24 39.3191C23.2842 39.3191 22.5801 39.2686 21.8901 39.1731C22.2425 38.3499 23.0545 37.7871 24 37.7871C24.9455 37.7871 25.7576 38.3498 26.1099 39.1731C25.4199 39.2686 24.7158 39.3191 24 39.3191ZM27.6379 38.8815C27.1339 37.3381 25.694 36.2552 24 36.2552C22.306 36.2552 20.8661 37.3381 20.3621 38.8815C17.649 38.2182 15.2173 36.8305 13.284 34.9355L15.123 32.7019C15.9489 31.6987 16.5959 29.8951 16.5959 28.5957V25.5319C16.5959 25.1089 16.2531 24.7659 15.83 24.7659H9.70211C9.35711 24.7659 9.0228 24.8287 8.71099 24.9463C8.69177 24.6332 8.68089 24.3179 8.68089 24C8.68089 23.3954 8.71727 22.7992 8.7857 22.2127H14.0426V22.468C14.0426 22.891 14.3855 23.234 14.8086 23.234C15.2317 23.234 15.5745 22.891 15.5745 22.468V11.2127C17.0188 10.258 18.6333 9.54114 20.3621 9.11852C20.8662 10.662 22.3061 11.7447 24 11.7447C25.694 11.7447 27.1339 10.6619 27.6379 9.11852C30.0793 9.71542 32.2929 10.8988 34.1208 12.5107H28.0851C27.662 12.5107 27.3192 12.8536 27.3192 13.2766C27.3192 13.6996 27.662 14.0425 28.0851 14.0425H28.8511V16.0851H28.5958C27.5972 16.0851 26.7454 16.7254 26.4291 17.6169H24.0001C23.577 17.6169 23.2341 17.9599 23.2341 18.3829V20.6808H21.9576C21.5345 20.6808 21.1916 21.0237 21.1916 21.4467C21.1916 21.8697 21.5345 22.2126 21.9576 22.2126H30.383V23.7445H22.9788C21.4302 23.7445 20.1703 25.0043 20.1703 26.553C20.1703 28.1016 21.4302 29.3614 22.9788 29.3614H23.2341V32.1699C23.2341 33.7186 24.494 34.9784 26.0425 34.9784H29.617C30.0401 34.9784 30.3829 34.6354 30.3829 34.2124V30.8933C30.3829 30.4703 30.0401 30.1274 29.617 30.1274C29.1939 30.1274 28.8511 30.4703 28.8511 30.8933V33.4465H26.0426C25.3386 33.4465 24.766 32.8739 24.766 32.1699V28.5954C24.766 28.1724 24.4232 27.8295 24.0001 27.8295H22.9788C22.2748 27.8295 21.7022 27.2569 21.7022 26.5529C21.7022 25.8489 22.2748 25.2763 22.9788 25.2763H28.8511V27.8295C28.8511 28.2525 29.1939 28.5954 29.617 28.5954C30.0401 28.5954 30.3829 28.2525 30.3829 27.8295V25.2763H31.1489C31.572 25.2763 31.9148 24.9334 31.9148 24.5104V22.2125H33.4467V26.5529C33.4467 26.9759 33.7895 27.3188 34.2126 27.3188C34.6357 27.3188 34.9786 26.9759 34.9786 26.5529V24.7659H38.4811C38.7717 24.7659 39.0495 24.7109 39.3058 24.612C39.0323 31.5349 34.1434 37.291 27.6379 38.8815Z" fill="#E3AD00"/>
<path d="M32.681 30.1277C32.2579 30.1277 31.915 30.4706 31.915 30.8936V31.9149C31.915 32.3379 32.2579 32.6809 32.681 32.6809C33.1041 32.6809 33.4469 32.3379 33.4469 31.9149V30.8936C33.447 30.4706 33.1042 30.1277 32.681 30.1277Z" fill="#E3AD00"/>
<path d="M21.9573 13.5319C21.5342 13.5319 21.1914 13.8748 21.1914 14.2978V15.3191C21.1914 15.7421 21.5343 16.085 21.9573 16.085C22.3804 16.085 22.7233 15.7421 22.7233 15.3191V14.2978C22.7234 13.8749 22.3805 13.5319 21.9573 13.5319Z" fill="#E3AD00"/>
<path d="M40.9705 7.02946C36.4375 2.49646 30.4106 0 24 0C18.177 0 12.5608 2.11246 8.18579 5.94833C7.86779 6.22714 7.83592 6.71108 8.11482 7.02917C8.39382 7.34717 8.87757 7.37905 9.19576 7.10014C13.2912 3.50943 18.5487 1.53197 24 1.53197C36.3889 1.53197 46.4681 11.611 46.4681 24C46.4681 36.3891 36.389 46.4681 24 46.4681C19.7285 46.4681 15.5725 45.2638 11.9814 42.9857C11.7872 42.8624 11.5473 42.8329 11.3289 42.9058L1.97702 46.0231L5.0943 36.6714C5.16714 36.4529 5.1378 36.2133 5.01442 36.0189C2.73612 32.4275 1.5319 28.2715 1.5319 24C1.5319 18.5489 3.50937 13.2913 7.10008 9.19564C7.37889 8.87755 7.34711 8.39361 7.02911 8.1147C6.71092 7.8358 6.22699 7.86767 5.94817 8.18567C2.11249 12.5609 2.82115e-05 18.1772 2.82115e-05 24C2.82115e-05 28.44 1.21831 32.7635 3.52708 36.5286L0.0393094 46.9918C-0.0523779 47.2671 0.0191532 47.5704 0.224372 47.7757C0.370434 47.9217 0.566183 48 0.766152 48C0.847152 48 0.928901 47.9872 1.00831 47.9607L11.4715 44.473C15.2364 46.7816 19.56 47.9999 24 47.9999C30.4106 47.9999 36.4375 45.5035 40.9705 40.9705C45.5035 36.4375 47.9998 30.4106 47.9998 24C47.9998 17.5893 45.5035 11.5624 40.9705 7.02946Z" fill="#E3AD00"/>
</g>
<defs>
<clipPath id="clip0_126_100">
<rect width="48" height="48" fill="white"/>
</clipPath>
</defs>
</svg>
