<svg width="372" height="281" viewBox="0 0 372 281" fill="none" xmlns="http://www.w3.org/2000/svg">
<g clip-path="url(#clip0_14_1134)">
<path d="M279.961 66.7761H278.421V24.4799C278.421 17.9874 275.849 11.7609 271.27 7.17001C266.691 2.57914 260.481 8.19223e-06 254.006 0H164.631C161.424 -8.61965e-06 158.249 0.633175 155.287 1.8634C152.325 3.09362 149.633 4.89679 147.366 7.16995C145.099 9.44311 143.3 12.1418 142.073 15.1118C140.846 18.0818 140.215 21.2651 140.215 24.4798V256.52C140.215 259.735 140.846 262.918 142.073 265.888C143.3 268.858 145.099 271.557 147.366 273.83C149.633 276.103 152.325 277.906 155.287 279.137C158.249 280.367 161.424 281 164.631 281H254.006C260.481 281 266.691 278.421 271.27 273.83C275.849 269.239 278.421 263.013 278.421 256.52V96.8833H279.961L279.961 66.7761Z" fill="#333333"/>
<path d="M254.991 6.36884H243.325C243.861 7.68764 244.066 9.11849 243.921 10.5353C243.776 11.9522 243.286 13.3116 242.493 14.4937C241.701 15.6758 240.631 16.6445 239.377 17.3142C238.124 17.984 236.725 18.3344 235.304 18.3345H184.102C182.682 18.3344 181.283 17.984 180.029 17.3142C178.776 16.6445 177.706 15.6758 176.913 14.4937C176.121 13.3116 175.631 11.9522 175.486 10.5353C175.341 9.11849 175.545 7.68764 176.082 6.36884H165.186C160.35 6.36883 155.712 8.29489 152.293 11.7233C148.873 15.1517 146.952 19.8016 146.952 24.6501V256.35C146.952 258.751 147.424 261.128 148.34 263.346C149.256 265.564 150.599 267.579 152.293 269.277C153.986 270.974 155.996 272.321 158.208 273.24C160.42 274.158 162.791 274.631 165.185 274.631H254.991C257.386 274.631 259.757 274.158 261.969 273.24C264.181 272.321 266.191 270.974 267.884 269.277C269.577 267.579 270.92 265.564 271.836 263.346C272.753 261.128 273.224 258.751 273.224 256.35V24.6501C273.224 22.2494 272.753 19.8722 271.836 17.6542C270.92 15.4362 269.577 13.4209 267.884 11.7233C266.191 10.0257 264.181 8.67913 261.969 7.76041C259.757 6.84169 257.386 6.36883 254.991 6.36884Z" fill="#535353"/>
<path d="M228.692 106.839C237.624 106.839 244.865 106.147 244.865 105.294C244.865 104.441 237.624 103.75 228.692 103.75C219.759 103.75 212.518 104.441 212.518 105.294C212.518 106.147 219.759 106.839 228.692 106.839Z" fill="#878585"/>
<path d="M372 38.5597H223.103V87.5686H228.743V100.387L241.527 87.5686H372V38.5597Z" fill="#2C2B2B"/>
<path d="M307.382 55.156H239.675V57.2162H307.382V55.156Z" fill="#535353"/>
<path d="M357.683 62.2827H239.675V64.3429H357.683V62.2827Z" fill="#535353"/>
<path d="M357.568 69.4095H239.675V71.4696H357.568V69.4095Z" fill="#535353"/>
<path d="M333.96 186.377H215.105V225.498H219.608V235.729L229.812 225.498H333.96V186.377Z" fill="#2C2B2B"/>
<path d="M282.38 199.625H228.334V201.269H282.38V199.625Z" fill="#535353"/>
<path d="M322.532 205.313H228.334V206.958H322.532V205.313Z" fill="#535353"/>
<path d="M322.44 211.002H228.334V212.647H322.44V211.002Z" fill="#535353"/>
<path d="M219.567 240.88C226.697 240.88 232.477 240.328 232.477 239.647C232.477 238.966 226.697 238.414 219.567 238.414C212.437 238.414 206.656 238.966 206.656 239.647C206.656 240.328 212.437 240.88 219.567 240.88Z" fill="#878585"/>
<path d="M184.021 163.983C192.953 163.983 200.195 163.291 200.195 162.438C200.195 161.585 192.953 160.894 184.021 160.894C175.088 160.894 167.847 161.585 167.847 162.438C167.847 163.291 175.088 163.983 184.021 163.983Z" fill="#878585"/>
<path d="M84.8877 115.405H189.597V149.87H185.631V158.884L176.641 149.87H84.8877V115.405Z" fill="#2C2B2B"/>
<path d="M143.363 126.811H95.749V128.26H143.363V126.811Z" fill="#535353"/>
<path d="M178.737 131.823H95.749V133.272H178.737V131.823Z" fill="#535353"/>
<path d="M178.655 136.835H95.749V138.283H178.655V136.835Z" fill="#535353"/>
<path d="M33.8819 199.474C34.384 200.341 35.2089 200.972 36.1752 201.229C37.1415 201.486 38.1701 201.348 39.0346 200.844C39.8991 200.341 40.5288 199.514 40.7851 198.545C41.0414 197.576 40.9033 196.545 40.4012 195.678C40.2958 195.501 40.1772 195.332 40.0462 195.173L43.2172 172.513L43.3122 171.834L43.9563 167.21L44.0512 166.543L43.7002 166.56L37.5567 166.841L35.9092 166.916L35.7027 171.134L34.5343 194.85C33.9238 195.436 33.5275 196.21 33.4092 197.049C33.2909 197.888 33.4573 198.742 33.8819 199.474Z" fill="#A0616A"/>
<path d="M43.2937 172.04L35.4925 171.322C35.0879 171.284 34.7148 171.087 34.4546 170.774C34.1944 170.461 34.0682 170.057 34.1035 169.651L35.5505 153.386C35.6206 152.596 35.8481 151.828 36.2194 151.128C36.5908 150.427 37.0984 149.809 37.7124 149.309C38.3264 148.808 39.0342 148.437 39.7939 148.216C40.5537 147.995 41.3499 147.929 42.1355 148.022C42.9211 148.115 43.6801 148.365 44.3677 148.757C45.0552 149.149 45.6572 149.676 46.1382 150.306C46.6192 150.935 46.9693 151.656 47.1678 152.423C47.3663 153.191 47.4092 153.991 47.2939 154.776L44.9547 170.73C44.901 171.095 44.7181 171.429 44.4393 171.671C44.1606 171.913 43.8045 172.046 43.436 172.046C43.3889 172.046 43.3413 172.044 43.2937 172.04Z" fill="#CCCCCC"/>
<path d="M37.3824 158.899C36.5934 156.658 36.5568 154.22 37.2783 151.956C37.9997 149.692 39.4396 147.727 41.3785 146.36C44.3202 144.342 48.3458 143.618 52.681 148.793C61.3515 159.142 63.6223 170.526 63.6223 170.526L45.8685 173.423C45.8685 173.423 39.8303 166.024 37.3824 158.899Z" fill="#CCCCCC"/>
<path d="M66.0955 275.473H71.1572L73.5652 255.898L66.0947 255.898L66.0955 275.473Z" fill="#A0616A"/>
<path d="M80.9199 280.185L65.0114 280.186L65.0112 274.023L76.0108 274.023C76.6554 274.023 77.2938 274.15 77.8893 274.398C78.4849 274.645 79.0261 275.007 79.4819 275.464C79.9378 275.921 80.2994 276.464 80.5461 277.061C80.7928 277.658 80.9198 278.298 80.9199 278.945L80.9199 280.185Z" fill="#2F2E41"/>
<path d="M24.4805 271.047L29.2864 272.64L37.7007 254.812L30.6077 252.461L24.4805 271.047Z" fill="#A0616A"/>
<path d="M37.0801 280.186L21.9753 275.18L23.9042 269.329L34.3482 272.79C34.9602 272.993 35.5265 273.315 36.0145 273.737C36.5026 274.159 36.9029 274.674 37.1927 275.251C37.4824 275.829 37.6559 276.457 37.7032 277.102C37.7506 277.747 37.6708 278.394 37.4685 279.008L37.0801 280.186Z" fill="#2F2E41"/>
<path d="M53.3899 139.982C58.3041 137.289 60.1101 131.111 57.4238 126.184C54.7374 121.256 48.5759 119.446 43.6617 122.139C38.7474 124.833 36.9414 131.01 39.6278 135.937C42.3141 140.865 48.4756 142.675 53.3899 139.982Z" fill="#A0616A"/>
<path d="M57.4051 270.024L52.7042 238.917C52.6541 238.585 52.4905 238.28 52.2414 238.056C51.9923 237.831 51.6732 237.701 51.3386 237.686C51.004 237.671 50.6747 237.774 50.407 237.976C50.1393 238.177 49.9499 238.466 49.8711 238.793L42.7126 268.437C42.5998 268.892 42.3218 269.287 41.9332 269.546C41.5445 269.806 41.0733 269.91 40.6119 269.839L20.8661 266.657C20.6042 266.615 20.3545 266.517 20.1335 266.37C19.9125 266.223 19.7255 266.03 19.585 265.804C19.4445 265.579 19.3538 265.326 19.3189 265.062C19.284 264.799 19.3058 264.531 19.3828 264.276L45.1302 179.167C45.2034 178.925 45.2121 178.668 45.1554 178.421L44.2981 174.697C44.2039 174.293 44.2474 173.869 44.4215 173.493C44.5956 173.117 44.8904 172.81 45.2587 172.621C48.7648 170.828 57.643 167.099 64.3466 171.183C64.5641 171.316 64.7524 171.492 64.9 171.701C65.0476 171.909 65.1514 172.145 65.2051 172.395L85.3189 267.179C85.3736 267.436 85.3732 267.703 85.3176 267.96C85.262 268.218 85.1525 268.461 84.9965 268.673C84.8404 268.885 84.6412 269.061 84.4121 269.19C84.183 269.319 83.9292 269.398 83.6674 269.422L59.4079 271.6C59.3519 271.605 59.2964 271.607 59.2414 271.607C58.7972 271.606 58.368 271.446 58.0312 271.156C57.6945 270.866 57.4724 270.464 57.4051 270.024Z" fill="#2F2E41"/>
<path d="M41.8013 123.877C42.5657 123.416 43.2441 122.825 43.8059 122.13C44.083 121.779 44.2654 121.363 44.3355 120.921C44.4056 120.479 44.3611 120.026 44.2063 119.606C43.6939 118.473 42.1714 118.114 40.9918 118.5C39.8122 118.887 38.9008 119.813 38.0386 120.708C37.2791 121.496 36.498 122.319 36.1378 123.354C35.7775 124.389 35.9626 125.701 36.8586 126.328C37.7379 126.944 39.0021 126.692 39.8479 126.031C40.6936 125.369 41.2171 124.387 41.7163 123.435L41.8013 123.877Z" fill="#2F2E41"/>
<path d="M38.3673 120.98C38.3111 118.115 35.0542 116.061 32.2416 116.569C29.4289 117.076 27.2669 119.481 26.1847 122.133C23.8981 127.736 25.6146 134.129 27.8178 139.766C30.021 145.403 32.7474 151.125 32.4261 157.17C32.2089 160.438 31.1154 163.586 29.2611 166.283C27.4069 168.979 24.8607 171.123 21.8916 172.489C25.066 173.931 28.8603 172.441 31.5277 170.192C37.4517 165.197 39.7383 156.305 36.9616 149.061C35.592 145.489 33.1784 142.432 31.294 139.103C29.4097 135.774 28.0271 131.851 29 128.15C29.9729 124.449 34.1131 121.451 37.6528 122.885L38.3673 120.98Z" fill="#2F2E41"/>
<path d="M49.1339 135.572C48.25 134.074 47.3575 132.108 48.9737 130.799C49.3251 130.527 49.7271 130.329 50.1561 130.215C50.5851 130.101 51.0324 130.075 51.4718 130.137C53.2936 130.357 55.2774 130.448 57.0406 129.784C57.7019 129.556 58.3107 129.197 58.8309 128.728C59.3511 128.259 59.7721 127.691 60.0688 127.056C60.9791 124.893 59.8392 122.265 57.9362 120.898C56.772 120.093 55.3964 119.649 53.9819 119.624C52.5674 119.599 51.177 119.993 49.9851 120.757C47.5203 119.666 44.5297 120.151 42.2904 121.654C40.0512 123.156 38.5189 125.563 37.6865 128.132C36.9198 130.344 36.7877 132.727 37.3055 135.01C37.7222 136.598 38.5145 138.063 39.6153 139.279C40.7161 140.495 42.0931 141.428 43.6295 141.997C44.228 142.234 44.8781 142.308 45.5145 142.214C46.1508 142.119 46.7512 141.858 47.2555 141.458C47.2555 141.458 48.6532 140.235 49.0905 138.761C49.4264 137.63 49.6062 136.373 49.1339 135.572Z" fill="#2F2E41"/>
<path d="M79.2174 144.645C79.1667 144.868 79.1337 145.095 79.1186 145.324L61.3824 155.582L57.0714 153.094L52.4756 159.127L59.6804 164.275C60.2625 164.691 60.9634 164.907 61.678 164.889C62.3925 164.872 63.0822 164.622 63.6433 164.178L81.9324 149.712C82.7578 150.018 83.6566 150.066 84.5093 149.847C85.3621 149.629 86.1283 149.155 86.7061 148.49C87.2839 147.824 87.6459 146.998 87.744 146.121C87.842 145.244 87.6714 144.358 87.255 143.581C86.8385 142.803 86.1958 142.171 85.4124 141.769C84.6291 141.367 83.7421 141.213 82.8696 141.329C81.997 141.444 81.1803 141.824 80.5279 142.416C79.8755 143.008 79.4184 143.786 79.2174 144.645V144.645Z" fill="#A0616A"/>
<path d="M60.7895 156.068L55.0573 163.517C54.8942 163.729 54.6874 163.903 54.4511 164.028C54.2148 164.153 53.9545 164.225 53.6879 164.239C53.4213 164.254 53.1547 164.211 52.9062 164.113C52.6578 164.015 52.4333 163.864 52.2481 163.671L45.7587 156.915C44.6817 156.072 43.982 154.836 43.8131 153.476C43.6441 152.117 44.0197 150.746 44.8574 149.664C45.6951 148.582 46.9266 147.878 48.2819 147.705C49.6371 147.532 51.0054 147.905 52.0868 148.742L60.2258 153.305C60.4588 153.435 60.661 153.615 60.8185 153.831C60.9761 154.047 61.0853 154.295 61.1388 154.557C61.1923 154.819 61.1888 155.09 61.1285 155.351C61.0683 155.612 60.9526 155.856 60.7895 156.068Z" fill="#CCCCCC"/>
<path d="M119.099 281H0.482184C0.354301 281 0.231655 280.949 0.141228 280.858C0.0508013 280.768 0 280.645 0 280.517C0 280.388 0.0508013 280.265 0.141228 280.175C0.231655 280.084 0.354301 280.033 0.482184 280.033H119.099C119.227 280.033 119.35 280.084 119.44 280.175C119.531 280.265 119.581 280.388 119.581 280.517C119.581 280.645 119.531 280.768 119.44 280.858C119.35 280.949 119.227 281 119.099 281H119.099Z" fill="#878585"/>
</g>
<defs>
<clipPath id="clip0_14_1134">
<rect width="372" height="281" fill="white"/>
</clipPath>
</defs>
</svg>
