<svg width="350" height="350" viewBox="0 0 350 350" fill="none" xmlns="http://www.w3.org/2000/svg">
<g clip-path="url(#clip0_10_583)">
<path d="M175.001 205.965C192.262 205.965 206.255 191.972 206.255 174.711C206.255 157.45 192.262 143.457 175.001 143.457C157.74 143.457 143.747 157.45 143.747 174.711C143.747 191.972 157.74 205.965 175.001 205.965Z" fill="#202020" fill-opacity="0.3"/>
<path fill-rule="evenodd" clip-rule="evenodd" d="M175.002 111.165C216.965 111.165 255.947 117.186 285.34 127.305C320.753 139.497 342.527 157.977 342.527 174.711C342.527 192.148 319.451 211.781 281.422 224.381C252.67 233.907 214.835 238.88 175.002 238.88C134.162 238.88 95.4884 234.212 66.413 224.277C29.6273 211.703 7.47095 191.816 7.47095 174.711C7.47095 158.113 28.2605 139.775 63.1765 127.602C92.6787 117.316 132.624 111.165 174.996 111.165H175.002Z" stroke="#202020" stroke-opacity="0.3" stroke-width="14.952"/>
<path fill-rule="evenodd" clip-rule="evenodd" d="M119.683 143.121C140.647 106.77 165.337 76.0088 188.786 55.6018C217.039 31.0145 243.926 21.3854 258.422 29.7442C273.528 38.4556 279.007 68.2543 270.923 107.492C264.818 137.158 250.219 172.416 230.319 206.923C209.915 242.302 186.553 273.472 163.423 293.689C134.154 319.275 105.858 328.534 91.0395 319.988C76.6607 311.702 71.1621 284.527 78.06 248.198C83.8881 217.503 98.5143 179.827 119.676 143.12L119.683 143.121Z" stroke="#202020" stroke-opacity="0.3" stroke-width="14.952"/>
<path fill-rule="evenodd" clip-rule="evenodd" d="M119.736 207.016C98.7124 170.706 84.399 133.946 78.4244 103.439C71.2325 66.6819 76.3174 38.5784 90.7997 30.1953C105.891 21.4583 134.444 31.5933 164.401 58.1929C187.051 78.3033 210.309 108.554 230.266 143.029C250.728 178.373 266.064 214.181 272.03 244.317C279.579 282.453 273.469 311.591 258.665 320.161C244.3 328.477 218.014 319.673 189.985 295.553C166.303 275.174 140.966 243.686 119.736 207.015V207.016Z" stroke="#202020" stroke-opacity="0.3" stroke-width="14.952"/>
</g>
<defs>
<clipPath id="clip0_10_583">
<rect width="350" height="350" fill="white"/>
</clipPath>
</defs>
</svg>
