<svg width="48" height="48" viewBox="0 0 48 48" fill="none" xmlns="http://www.w3.org/2000/svg">
<g clip-path="url(#clip0_18_108)">
<path d="M48.0009 27.5991V4.31006H11.6489V16.071H14.3083V6.9694H45.3416V24.1699H30.8509V30.3358H40.4479V29.0973H32.8603V27.5991H48.0009Z" fill="#E3AD00"/>
<path d="M17.7397 34.3169H17.0194H14.2788V35.4662H20.9549V35.9676H14.2788V37.005H33.6591V34.5002L30.0189 34.3169H17.7397Z" fill="#E3AD00"/>
<path d="M0 43.691H13.4127V23.5685H0V43.691ZM6.9902 42.6804C6.63251 42.6804 6.34319 42.3881 6.34319 42.0343C6.34319 41.6767 6.63251 41.3883 6.9902 41.3883C7.34689 41.3883 7.63621 41.6767 7.63621 42.0343C7.63621 42.3901 7.34689 42.6804 6.9902 42.6804ZM1.93902 25.5076H11.4756L11.4746 40.3519H1.93902V25.5076Z" fill="#E3AD00"/>
<path d="M6.63466 18.7641H28.1284V31.6496H14.2788V33.5431H30.0228V16.8726H4.74121V22.7085H6.63466V18.7641Z" fill="#E3AD00"/>
</g>
<defs>
<clipPath id="clip0_18_108">
<rect width="48.001" height="48" fill="white"/>
</clipPath>
</defs>
</svg>
