<svg width="48" height="48" viewBox="0 0 48 48" fill="none" xmlns="http://www.w3.org/2000/svg">
<g clip-path="url(#clip0_128_133)">
<path d="M9.60015 12C11.5876 12 13.2001 10.3875 13.2001 8.40005C13.2001 6.41255 11.5876 4.80005 9.60015 4.80005C7.61265 4.80005 6.00015 6.41255 6.00015 8.40005C6.00015 10.3875 7.61265 12 9.60015 12ZM38.4001 12C40.3876 12 42.0001 10.3875 42.0001 8.40005C42.0001 6.41255 40.3876 4.80005 38.4001 4.80005C36.4126 4.80005 34.8001 6.41255 34.8001 8.40005C34.8001 10.3875 36.4126 12 38.4001 12ZM47.8276 39.9076L44.5276 31.6576L41.4451 35.1376L41.2951 36.5026L43.3726 41.6925C43.7476 42.63 44.6476 43.2001 45.6001 43.2001C45.9001 43.2001 46.2001 43.1476 46.4926 43.0276C47.7226 42.5326 48.3226 41.1376 47.8276 39.9076V39.9076ZM45.2626 24.1725L43.8751 18.1575C43.5301 16.6575 42.4801 15.3975 41.0626 14.79C39.6751 14.19 38.1376 14.2875 36.8551 15.0375C35.1526 16.0425 33.8776 17.625 33.2476 19.4925L32.4001 22.035L31.2001 22.8V15.6C31.2001 14.94 30.6601 14.4 30.0001 14.4H18.0001C17.3401 14.4 16.8001 14.94 16.8001 15.6V22.8L15.5926 22.035L14.7451 19.4925C14.1226 17.6175 12.8401 16.0425 11.1376 15.0375C9.84765 14.2875 8.31765 14.19 6.93015 14.79C5.51265 15.3975 4.46265 16.6575 4.11765 18.1575L2.73765 24.1725C2.39265 25.6725 2.79015 27.2625 3.81765 28.425L8.85765 34.1175L9.61515 41.0626C9.75015 42.2851 10.7851 43.2001 12.0001 43.2001C12.0901 43.2001 12.1726 43.1925 12.2626 43.185C13.5826 43.0425 14.5276 41.8576 14.3851 40.5376L13.6276 33.5776C13.5151 32.6026 13.1101 31.6951 12.4576 30.9526L9.21015 27.2776L10.5301 22.005L11.0401 23.535C11.3476 24.4725 11.9326 25.29 12.8776 25.98L16.7101 28.4175C17.0551 28.635 17.6176 28.7625 18.0001 28.7925H30.0001C30.3826 28.7625 30.9451 28.635 31.2901 28.4175L35.1226 25.98C36.0676 25.29 36.6526 24.48 36.9601 23.535L37.4701 22.005L38.7901 27.2776L35.5426 30.9526C34.8901 31.6951 34.4851 32.6026 34.3726 33.5776L33.6151 40.5376C33.4726 41.8576 34.4251 43.0425 35.7376 43.185C35.8276 43.1925 35.9101 43.2001 36.0001 43.2001C37.2076 43.2001 38.2501 42.2926 38.3851 41.0626L39.1426 34.1175L44.1826 28.425C45.2026 27.2625 45.6076 25.6725 45.2626 24.1725ZM3.47265 31.6576L0.172647 39.9076C-0.322353 41.1376 0.277647 42.5326 1.50765 43.0276C2.76765 43.5226 4.14015 42.9 4.62765 41.6925L6.70515 36.5026L6.55515 35.1376L3.47265 31.6576V31.6576Z" fill="#E3AD00"/>
</g>
<defs>
<clipPath id="clip0_128_133">
<rect width="48" height="48" fill="white"/>
</clipPath>
</defs>
</svg>
